# xmcd
#
# Track frame offsets:
#	150
#	14432
#	27534
#	40766
#	54101
#	65854
#	76036
#	90164
#	103002
#	115586
#	128595
#	140947
#	153259
#	166515
#	178585
#	189387
#	201585
#	214344
#	227004
#	241344
#	252910
#	264230
#	275817
#	289137
#
# Disc length: 4026 seconds
#
# Revision: 0
# Processed by: cddbd v1.5.1PL0 Copyright (c) Steve Scherf et al.
# Submitted via: dBpowerAMP V4.0
#
DISCID=4d0fb818
DTITLE=Le Blues 1925-1952 - Disc 2
DYEAR=1900
DGENRE=Blues
TTITLE0=Boogie Chillen' (John Lee Hooker)
TTITLE1=Louisiana Blues (Muddy Waters)
TTITLE2=Big Town Playboy (Little Johnny Jones)
TTITLE3=Little Johnny Jones (Jimmy Rogers)
TTITLE4=Lima Beans (Eddie Ware)
TTITLE5=Blue Baby (Little Walter)
TTITLE6=Back to Korea (Sunnyland Slim)
TTITLE7=Korea Blues (J.B. Lenoir)
TTITLE8=No Mail Blues (Memphis Slim)
TTITLE9=Six Three O (Robert Nighthawk)
TTITLE10=Dust My Broom (Elmore James)
TTITLE11=How Many More Years (Howlin' Wolf)
TTITLE12=You're My Best Poker Hand (T-Bone Walker)
TTITLE13=River Blues, Pt. 1 (Lowell Fulson)
TTITLE14=Fine Lookin' Woman (B.B. King)
TTITLE15=Texas Hop (Pee Wee Crayton)
TTITLE16=Frieght Train Blues ("Lightnin'" Hopkins)
TTITLE17=Since I Seen Your Smiling Face (Country Paul)
TTITLE18=Rock Little Baby (Cecil Gant)
TTITLE19=Country Clown (Dr Ross)
TTITLE20=Gotta Go Baby (Joe Hill Louis)
TTITLE21=Rockin' and Rollin' (Lil Son' Jackson)
TTITLE22=Mighty Long Time (Sonny Boy Williamson [II])
TTITLE23=No Riding Blues (Charley Booker)
EXTD=PG
EXTT0=
EXTT1=
EXTT2=
EXTT3=
EXTT4=
EXTT5=
EXTT6=
EXTT7=
EXTT8=
EXTT9=
EXTT10=
EXTT11=
EXTT12=
EXTT13=
EXTT14=
EXTT15=
EXTT16=
EXTT17=
EXTT18=
EXTT19=
EXTT20=
EXTT21=
EXTT22=
EXTT23=
PLAYORDER=
